<?xml version="1.0" standalone="no"?>
<!DOCTYPE svg PUBLIC "-//W3C//DTD SVG 20010904//EN"
 "http://www.w3.org/TR/2001/REC-SVG-20010904/DTD/svg10.dtd">
<svg version="1.0" xmlns="http://www.w3.org/2000/svg"
 width="300.000000pt" height="300.000000pt" viewBox="0 0 300.000000 300.000000"
 preserveAspectRatio="xMidYMid meet">
<metadata>
Created by potrace 1.11, written by Peter Selinger 2001-2013
</metadata>
<g transform="translate(0.000000,300.000000) scale(0.100000,-0.100000)"
fill="#000000" stroke="none">
<path d="M1247 2579 c-15 -11 -32 -37 -38 -59 -10 -33 -9 -44 10 -82 19 -40
21 -61 21 -205 l0 -160 -137 -78 c-76 -43 -150 -87 -166 -97 -27 -19 -28 -19
-61 1 -42 26 -82 27 -123 1 -69 -42 -60 -163 14 -191 23 -8 23 -9 23 -211 l0
-203 -152 -88 c-128 -73 -158 -87 -196 -87 -37 0 -50 -6 -78 -34 -48 -48 -48
-104 0 -152 28 -28 42 -34 76 -34 34 0 48 6 76 34 19 19 34 40 34 47 0 8 17
23 38 35 20 11 81 46 136 78 54 32 108 62 120 67 18 9 49 -5 189 -86 163 -95
167 -98 167 -130 0 -37 37 -90 70 -100 18 -6 20 -16 20 -114 l0 -109 -30 -12
c-39 -16 -60 -51 -60 -101 0 -35 6 -47 36 -75 37 -36 71 -42 118 -24 31 11 66
65 66 100 0 34 -34 88 -65 102 -24 11 -25 14 -25 119 l0 108 30 16 c33 17 60
61 60 98 0 19 18 34 103 82 56 33 142 83 191 112 49 29 93 53 99 53 5 0 104
-30 220 -67 194 -63 212 -70 231 -100 45 -70 146 -75 187 -10 15 24 19 44 16
82 -5 50 -4 50 97 190 57 77 115 159 130 181 l27 42 -125 174 -125 173 10 44
c11 52 5 77 -28 113 l-25 26 28 81 c21 62 32 81 46 81 28 0 74 27 92 52 39 56
6 149 -59 167 -115 32 -194 -101 -110 -185 l24 -24 -28 -82 c-25 -74 -31 -83
-57 -89 -38 -7 -70 -28 -84 -54 -8 -15 -39 -30 -98 -50 -48 -16 -150 -50 -228
-75 l-140 -47 -55 32 c-58 34 -93 54 -267 154 l-112 64 0 164 c0 150 2 167 20
190 31 40 27 103 -9 142 -24 26 -37 31 -74 31 -30 0 -53 -7 -70 -21z m103
-340 l0 -149 -25 6 c-15 4 -32 1 -40 -6 -13 -11 -15 7 -15 147 l0 159 40 -4
40 -4 0 -149z m48 -209 c46 -28 105 -62 130 -76 26 -14 98 -55 159 -92 l113
-67 0 -282 0 -281 -50 -31 c-28 -17 -52 -31 -54 -31 -1 0 -68 -38 -147 -84
l-144 -85 -26 25 c-39 38 -86 41 -132 10 l-38 -26 -57 30 c-31 16 -118 65
-192 108 l-135 78 -3 241 -2 240 30 6 c39 8 72 59 68 106 l-3 33 195 114 c107
62 197 113 200 113 3 1 43 -22 88 -49z m884 -126 c12 -46 49 -67 113 -62 l53
3 120 -165 c102 -139 119 -168 109 -182 -153 -216 -242 -328 -256 -322 -9 4
-34 9 -57 12 -35 3 -45 0 -72 -28 -18 -17 -32 -41 -32 -52 0 -12 -5 -18 -13
-15 -14 5 -293 97 -374 123 l-53 16 0 282 0 282 213 70 c116 39 218 71 226 70
8 -1 18 -15 23 -32z m-1482 -661 c0 -9 7 -25 17 -35 9 -10 14 -20 12 -21 -4
-3 -52 -30 -203 -114 -43 -24 -79 -43 -80 -41 -1 2 -10 15 -19 30 -19 30 -22
48 -9 48 5 0 67 34 137 75 71 41 132 75 137 75 4 0 8 -8 8 -17z"/>
<path d="M1870 1516 l0 -226 25 0 c25 0 25 0 26 98 1 53 1 153 1 222 l-1 125
-25 3 -26 3 0 -225z"/>
<path d="M2495 1424 c-71 -97 -76 -107 -62 -122 9 -9 18 -14 20 -11 27 30 147
200 147 207 0 5 -6 15 -14 21 -10 9 -29 -10 -91 -95z"/>
</g>
</svg>
